<?xml version="1.0" encoding="UTF-8"?>
<!-- Created with Inkscape (http://www.inkscape.org/) -->
<svg width="70.845" height="83.854" version="1.1" viewBox="0 0 18.745 22.186" xmlns="http://www.w3.org/2000/svg">
 <g transform="translate(-43.636 -116.64)">
  <g stroke="#000" stroke-linecap="round" stroke-linejoin="round" stroke-width=".014796">
   <path d="m51.527 128.08h-3e-3a0.11079 0.13341 0 0 0-0.11078 0.1334v0.27438a0.11079 0.13341 0 0 0 0.11078 0.13342h3e-3a0.11079 0.13341 0 0 0 0.11078-0.13342v-0.27438a0.11079 0.13341 0 0 0-0.11078-0.1334z"/>
   <path d="m52.242 128.08h-3e-3a0.11079 0.13341 0 0 0-0.11078 0.1334v0.27438a0.11079 0.13341 0 0 0 0.11078 0.13342h3e-3a0.11079 0.13341 0 0 0 0.11078-0.13342v-0.27438a0.11079 0.13341 0 0 0-0.11078-0.1334z"/>
   <path d="m52.958 128.08h-3e-3a0.11079 0.13341 0 0 0-0.11078 0.1334v0.27438a0.11079 0.13341 0 0 0 0.11078 0.13342h3e-3a0.11079 0.13341 0 0 0 0.11079-0.13342v-0.27438a0.11079 0.13341 0 0 0-0.11079-0.1334z"/>
   <path d="m53.674 128.08h-3e-3a0.11079 0.13341 0 0 0-0.11078 0.1334v0.27438a0.11079 0.13341 0 0 0 0.11078 0.13342h3e-3a0.11079 0.13341 0 0 0 0.1108-0.13342v-0.27438a0.11079 0.13341 0 0 0-0.1108-0.1334z"/>
   <path d="m54.389 128.09h-3e-3a0.11079 0.13341 0 0 0-0.11078 0.13341v0.27437a0.11079 0.13341 0 0 0 0.11078 0.13342h3e-3a0.11079 0.13341 0 0 0 0.11079-0.13342v-0.27437a0.11079 0.13341 0 0 0-0.11079-0.13341z"/>
   <path d="m51.539 132.83h-3e-3a0.11079 0.13341 0 0 0-0.11078 0.13341v0.27437a0.11079 0.13341 0 0 0 0.11078 0.13342h3e-3a0.11079 0.13341 0 0 0 0.11078-0.13342v-0.27437a0.11079 0.13341 0 0 0-0.11078-0.13341z"/>
   <path d="m52.254 132.83h-3e-3a0.11079 0.13341 0 0 0-0.11078 0.13341v0.27437a0.11079 0.13341 0 0 0 0.11078 0.13342h3e-3a0.11079 0.13341 0 0 0 0.11078-0.13342v-0.27437a0.11079 0.13341 0 0 0-0.11078-0.13341z"/>
  </g>
  <path d="m52.981 132.83h-3e-3a0.11079 0.13341 0 0 0-0.11078 0.13341v0.27437a0.11079 0.13341 0 0 0 0.11078 0.13342h3e-3a0.11079 0.13341 0 0 0 0.11079-0.13342v-0.27437a0.11079 0.13341 0 0 0-0.11079-0.13341z" fill="#ccc" stroke="#000" stroke-linecap="round" stroke-linejoin="round" stroke-width=".014796"/>
  <g stroke="#000" stroke-linecap="round" stroke-linejoin="round" stroke-width=".014796">
   <path d="m53.685 132.83h-3e-3a0.11079 0.13341 0 0 0-0.11079 0.13341v0.27437a0.11079 0.13341 0 0 0 0.11079 0.13342h3e-3a0.11079 0.13341 0 0 0 0.11079-0.13342v-0.27437a0.11079 0.13341 0 0 0-0.11079-0.13341z"/>
   <path d="m54.401 132.83h-3e-3a0.11079 0.13341 0 0 0-0.11079 0.13341v0.27437a0.11079 0.13341 0 0 0 0.11079 0.13342h3e-3a0.11079 0.13341 0 0 0 0.11079-0.13342v-0.27437a0.11079 0.13341 0 0 0-0.11079-0.13341z"/>
   <path d="m52.97 132.83h-3e-3a0.11079 0.13341 0 0 0-0.11078 0.13341v0.27437a0.11079 0.13341 0 0 0 0.11078 0.13342h3e-3a0.11079 0.13341 0 0 0 0.11079-0.13342v-0.27437a0.11079 0.13341 0 0 0-0.11079-0.13341z"/>
  </g>
  <g stroke-linecap="round" stroke-linejoin="round">
   <path d="m51.111 128.5h3.7137a0.38872 0.38872 0 0 1 0.38872 0.38872v3.7137a0.38872 0.38872 0 0 1-0.38872 0.38872h-3.7137a0.38872 0.38872 0 0 1-0.38872-0.38872v-3.7137a0.38872 0.38872 0 0 1 0.38872-0.38872z" fill="#fff" stroke="#000" stroke-width=".037426"/>
   <path d="m51.38 128.82h3.1767a0.33251 0.33251 0 0 1 0.33251 0.33251v3.1767a0.33251 0.33251 0 0 1-0.33251 0.33251h-3.1767a0.33251 0.33251 0 0 1-0.33251-0.33251v-3.1767a0.33251 0.33251 0 0 1 0.33251-0.33251z" fill="#fff" stroke="#000" stroke-width=".11139"/>
   <path d="m52.049 129.54q0.02223 0 0.04445 0.01 0.0254 9e-3 0.04127 0.0317l0.8763 1.3144-0.08573-3e-3 0.87948-1.3113q0.03493-0.0476 0.08573-0.0413 0.0381 0 0.0635 0.0286 0.02858 0.0254 0.02858 0.0667v2.032q0 0.0381-0.02858 0.0667-0.02857 0.0286-0.06985 0.0286-0.04445 0-0.07303-0.0286t-0.02858-0.0667v-1.8383l0.05715 6e-3 -0.80328 1.216q-0.0095 0.019-0.02857 0.0317-0.01905 0.01-0.04445 6e-3 -0.02222 3e-3 -0.04445-6e-3 -0.01905-0.0127-0.03175-0.0317l-0.80645-1.2287 0.06032-0.0413v1.886q0 0.0381-0.02857 0.0667-0.0254 0.0286-0.06668 0.0286-0.04127 0-0.06667-0.0286t-0.0254-0.0667v-2.032q0-0.0381 0.0254-0.0667 0.02857-0.0286 0.06985-0.0286z" stroke="#808080" stroke-width=".026458" aria-label="M"/>
   <path d="m51.536 133.37v1.7397" stroke="#000" stroke-width=".079375"/>
  </g>
  <g fill="none" stroke="#000" stroke-linecap="round" stroke-linejoin="round">
   <path d="m52.252 133.37v2.6244l-0.47954 0.83059" stroke-width=".079375"/>
   <path d="m52.978 133.37v3.3768" stroke-width=".079375"/>
   <path d="m53.685 133.37v2.6372l0.52201 0.80354" stroke-width=".082289"/>
   <path d="m54.401 133.37v1.7904" stroke-width=".079375"/>
  </g>
  <g fill="#fff" stroke="#1a1a1a" stroke-linecap="round" stroke-linejoin="round" stroke-width=".06837">
   <path d="m51.885 135.76a0.4017 0.4017 0 0 1-0.54874 0.14712 0.4017 0.4017 0 0 1-0.14712-0.54873 0.4017 0.4017 0 0 1 0.54872-0.14704 0.4017 0.4017 0 0 1 0.14713 0.54873z"/>
   <path d="m51.885 137.34a0.4017 0.4017 0 0 1-0.54874 0.14712 0.4017 0.4017 0 0 1-0.14712-0.54873 0.4017 0.4017 0 0 1 0.54872-0.14704 0.4017 0.4017 0 0 1 0.14713 0.54873z"/>
   <path d="m53.328 137.4a0.4017 0.4017 0 0 1-0.54874 0.14712 0.4017 0.4017 0 0 1-0.14712-0.54873 0.4017 0.4017 0 0 1 0.54872-0.14704 0.4017 0.4017 0 0 1 0.14713 0.54873z"/>
   <path d="m53.328 137.4a0.4017 0.4017 0 0 1-0.54874 0.14712 0.4017 0.4017 0 0 1-0.14712-0.54873 0.4017 0.4017 0 0 1 0.54872-0.14704 0.4017 0.4017 0 0 1 0.14713 0.54873z"/>
   <path d="m54.747 137.4a0.4017 0.4017 0 0 1-0.54874 0.14712 0.4017 0.4017 0 0 1-0.14712-0.54873 0.4017 0.4017 0 0 1 0.54872-0.14704 0.4017 0.4017 0 0 1 0.14713 0.54873z"/>
   <path d="m54.747 135.76a0.4017 0.4017 0 0 1-0.54874 0.14712 0.4017 0.4017 0 0 1-0.14712-0.54873 0.4017 0.4017 0 0 1 0.54872-0.14704 0.4017 0.4017 0 0 1 0.14713 0.54873z"/>
  </g>
  <g stroke="#000" stroke-linecap="round" stroke-linejoin="round" stroke-width=".046289">
   <path d="m52.168 129.82a0.075008 0.075008 0 0 1-0.07501 0.075 0.075008 0.075008 0 0 1-0.07501-0.075 0.075008 0.075008 0 0 1 0.07501-0.075 0.075008 0.075008 0 0 1 0.07501 0.075z"/>
   <path d="m53.045 130.93a0.075008 0.075008 0 0 1-0.07501 0.075 0.075008 0.075008 0 0 1-0.07501-0.075 0.075008 0.075008 0 0 1 0.07501-0.075 0.075008 0.075008 0 0 1 0.07501 0.075z"/>
   <path d="m53.876 129.81a0.075008 0.075008 0 0 1-0.07501 0.075 0.075008 0.075008 0 0 1-0.07501-0.075 0.075008 0.075008 0 0 1 0.07501-0.075 0.075008 0.075008 0 0 1 0.07501 0.075z"/>
  </g>
  <path d="m50.396 124.74h4.6795a0.9391 0.92358 0 0 1 0.9391 0.92357v4.9019c0 0.51007 0.06169 1.3329 0.11064 1.8406 0.18974 1.967 0.08364 3.858-0.01228 4.9295-0.04471 0.49934-0.49704 1.0103-0.98884 1.1434l-0.45242 0.12238a6.4302 6.3239 0 0 1-3.4107-1e-5l-0.4875-0.13187c-0.47242-0.1278-0.91711-0.61754-0.96751-1.0968-0.1084-1.0306-0.22731-2.8727-0.01165-4.9275 0.05555-0.52952 0.12377-1.3881 0.12377-1.921v-5.3142a0.47795 0.47004 0 0 1 0.47795-0.47005z" fill="#eca14f"/>
  <path d="m62.381 123.97c0 2.8392-4.1961 1.3709-9.3723 1.3709-5.1761 0-9.3722 1.4683-9.3722-1.3709 0-2.8392 6.2807-7.3291 9.3157-7.3291 3.035 0 9.4288 4.4899 9.4288 7.3291z" fill="#2563eb"/>
  <g fill="#4d4d4d" stroke="#4d4d4d" stroke-linecap="round" stroke-linejoin="round" stroke-width=".014796">
   <path d="m51.527 128.08h-3e-3a0.11079 0.13341 0 0 0-0.11078 0.1334v0.27438a0.11079 0.13341 0 0 0 0.11078 0.13342h3e-3a0.11079 0.13341 0 0 0 0.11078-0.13342v-0.27438a0.11079 0.13341 0 0 0-0.11078-0.1334z"/>
   <path d="m52.242 128.08h-3e-3a0.11079 0.13341 0 0 0-0.11078 0.1334v0.27438a0.11079 0.13341 0 0 0 0.11078 0.13342h3e-3a0.11079 0.13341 0 0 0 0.11078-0.13342v-0.27438a0.11079 0.13341 0 0 0-0.11078-0.1334z"/>
   <path d="m52.958 128.08h-3e-3a0.11079 0.13341 0 0 0-0.11078 0.1334v0.27438a0.11079 0.13341 0 0 0 0.11078 0.13342h3e-3a0.11079 0.13341 0 0 0 0.11079-0.13342v-0.27438a0.11079 0.13341 0 0 0-0.11079-0.1334z"/>
   <path d="m53.674 128.08h-3e-3a0.11079 0.13341 0 0 0-0.11078 0.1334v0.27438a0.11079 0.13341 0 0 0 0.11078 0.13342h3e-3a0.11079 0.13341 0 0 0 0.1108-0.13342v-0.27438a0.11079 0.13341 0 0 0-0.1108-0.1334z"/>
   <path d="m54.389 128.09h-3e-3a0.11079 0.13341 0 0 0-0.11078 0.13341v0.27437a0.11079 0.13341 0 0 0 0.11078 0.13342h3e-3a0.11079 0.13341 0 0 0 0.11079-0.13342v-0.27437a0.11079 0.13341 0 0 0-0.11079-0.13341z"/>
   <path d="m51.539 132.83h-3e-3a0.11079 0.13341 0 0 0-0.11078 0.13341v0.27437a0.11079 0.13341 0 0 0 0.11078 0.13342h3e-3a0.11079 0.13341 0 0 0 0.11078-0.13342v-0.27437a0.11079 0.13341 0 0 0-0.11078-0.13341z"/>
   <path d="m52.254 132.83h-3e-3a0.11079 0.13341 0 0 0-0.11078 0.13341v0.27437a0.11079 0.13341 0 0 0 0.11078 0.13342h3e-3a0.11079 0.13341 0 0 0 0.11078-0.13342v-0.27437a0.11079 0.13341 0 0 0-0.11078-0.13341z"/>
  </g>
  <path d="m52.981 132.83h-3e-3a0.11079 0.13341 0 0 0-0.11078 0.13341v0.27437a0.11079 0.13341 0 0 0 0.11078 0.13342h3e-3a0.11079 0.13341 0 0 0 0.11079-0.13342v-0.27437a0.11079 0.13341 0 0 0-0.11079-0.13341z" fill="#ccc" stroke="#000" stroke-linecap="round" stroke-linejoin="round" stroke-width=".014796"/>
  <g fill="#4d4d4d" stroke="#4d4d4d" stroke-linecap="round" stroke-linejoin="round" stroke-width=".014796">
   <path d="m53.685 132.83h-3e-3a0.11079 0.13341 0 0 0-0.11079 0.13341v0.27437a0.11079 0.13341 0 0 0 0.11079 0.13342h3e-3a0.11079 0.13341 0 0 0 0.11079-0.13342v-0.27437a0.11079 0.13341 0 0 0-0.11079-0.13341z"/>
   <path d="m54.401 132.83h-3e-3a0.11079 0.13341 0 0 0-0.11079 0.13341v0.27437a0.11079 0.13341 0 0 0 0.11079 0.13342h3e-3a0.11079 0.13341 0 0 0 0.11079-0.13342v-0.27437a0.11079 0.13341 0 0 0-0.11079-0.13341z"/>
   <path d="m52.97 132.83h-3e-3a0.11079 0.13341 0 0 0-0.11078 0.13341v0.27437a0.11079 0.13341 0 0 0 0.11078 0.13342h3e-3a0.11079 0.13341 0 0 0 0.11079-0.13342v-0.27437a0.11079 0.13341 0 0 0-0.11079-0.13341z"/>
  </g>
  <path d="m51.111 128.5h3.7137a0.38872 0.38872 0 0 1 0.38872 0.38872v3.7137a0.38872 0.38872 0 0 1-0.38872 0.38872h-3.7137a0.38872 0.38872 0 0 1-0.38872-0.38872v-3.7137a0.38872 0.38872 0 0 1 0.38872-0.38872z" fill="#fff" stroke="#666" stroke-linecap="round" stroke-linejoin="round" stroke-width=".15875"/>
  <g fill="#f9f9f9" stroke="#f9f9f9" stroke-linecap="round" stroke-linejoin="round" stroke-width=".06837">
   <path d="m48.065 124.57a0.4017 0.4017 0 0 1-0.54874 0.14712 0.4017 0.4017 0 0 1-0.14712-0.54873 0.4017 0.4017 0 0 1 0.54872-0.14704 0.4017 0.4017 0 0 1 0.14713 0.54873z"/>
   <path d="m52.962 118.01a0.4017 0.4017 0 0 1-0.54874 0.14711 0.4017 0.4017 0 0 1-0.14712-0.54873 0.4017 0.4017 0 0 1 0.54872-0.14703 0.4017 0.4017 0 0 1 0.14713 0.54873z"/>
   <path d="m55.034 119.76a0.4017 0.4017 0 0 1-0.54874 0.14712 0.4017 0.4017 0 0 1-0.14712-0.54874 0.4017 0.4017 0 0 1 0.54872-0.14703 0.4017 0.4017 0 0 1 0.14713 0.54873z"/>
   <path d="m59.333 120.98a0.4017 0.4017 0 0 1-0.54874 0.14711 0.4017 0.4017 0 0 1-0.14712-0.54873 0.4017 0.4017 0 0 1 0.54872-0.14703 0.4017 0.4017 0 0 1 0.14713 0.54873z"/>
   <path d="m49.032 122.03a0.4017 0.4017 0 0 1-0.54874 0.14711 0.4017 0.4017 0 0 1-0.14712-0.54873 0.4017 0.4017 0 0 1 0.54872-0.14703 0.4017 0.4017 0 0 1 0.14713 0.54873z"/>
  </g>
  <g fill="none" stroke="#fff" stroke-linecap="round" stroke-linejoin="round" stroke-width=".18521">
   <path d="m51.523 128.08v-3.5718l-1.3219-1.3219h-3.9016"/>
   <path d="m52.955 128.08v-3.552l0.90823-0.87766v-1.4241"/>
   <path d="m53.674 128.08v-3.501l2.6969-2.6651v-1.5891"/>
   <path d="m54.389 128.09v-3.5056l1.9788-1.9626h1.9954"/>
  </g>
  <g stroke-linecap="round" stroke-linejoin="round">
   <path d="m59.804 124.57a0.4017 0.4017 0 0 1-0.54874 0.14711 0.4017 0.4017 0 0 1-0.14712-0.54873 0.4017 0.4017 0 0 1 0.54872-0.14703 0.4017 0.4017 0 0 1 0.14713 0.54873z" fill="#f9f9f9" stroke="#f9f9f9" stroke-width=".06837"/>
   <path d="m46.835 121.25a0.4017 0.4017 0 0 1-0.54874 0.14712 0.4017 0.4017 0 0 1-0.14712-0.54873 0.4017 0.4017 0 0 1 0.54872-0.14704 0.4017 0.4017 0 0 1 0.14713 0.54873z" fill="#f9f9f9" stroke="#f9f9f9" stroke-width=".06837"/>
   <path d="m52.24 128.08v-3.5736l-2.5337-2.5419v-2.9381" fill="none" stroke="#fff" stroke-width=".18521"/>
  </g>
  <path d="m51.38 128.82h3.1767a0.33251 0.33251 0 0 1 0.33251 0.33251v3.1767a0.33251 0.33251 0 0 1-0.33251 0.33251h-3.1767a0.33251 0.33251 0 0 1-0.33251-0.33251v-3.1767a0.33251 0.33251 0 0 1 0.33251-0.33251z" fill="#2563eb"/>
  <path d="m51.91 120.75a0.4017 0.4017 0 0 1-0.54874 0.14711 0.4017 0.4017 0 0 1-0.14712-0.54872 0.4017 0.4017 0 0 1 0.54872-0.14704 0.4017 0.4017 0 0 1 0.14713 0.54873z" fill="#f9f9f9" stroke="#f9f9f9" stroke-linecap="round" stroke-linejoin="round" stroke-width=".06837"/>
  <path d="m51.536 133.37v1.7397" stroke="#fff" stroke-linecap="round" stroke-linejoin="round" stroke-width=".18521"/>
  <g fill="none" stroke="#fff" stroke-linecap="round" stroke-linejoin="round" stroke-width=".18521">
   <path d="m52.252 133.37v2.6244l-0.47954 0.83059"/>
   <path d="m52.978 133.37v3.3768"/>
   <path d="m53.685 133.37v2.6372l0.52201 0.80354"/>
   <path d="m54.401 133.37v1.7904"/>
  </g>
  <path d="m46.21 123.4a0.4017 0.4017 0 0 1-0.54874 0.14712 0.4017 0.4017 0 0 1-0.14712-0.54873 0.4017 0.4017 0 0 1 0.54872-0.14704 0.4017 0.4017 0 0 1 0.14713 0.54873z" fill="#f9f9f9" stroke="#f9f9f9" stroke-linecap="round" stroke-linejoin="round" stroke-width=".06837"/>
  <path d="m50.045 118.78a0.4017 0.4017 0 0 1-0.54874 0.14712 0.4017 0.4017 0 0 1-0.14712-0.54873 0.4017 0.4017 0 0 1 0.54872-0.14704 0.4017 0.4017 0 0 1 0.14713 0.54873z" fill="#f9f9f9" stroke="#f9f9f9" stroke-linecap="round" stroke-linejoin="round" stroke-width=".06837"/>
  <g fill="#fff" stroke-linecap="round" stroke-linejoin="round">
   <g stroke="#f9f9f9" stroke-width=".06837">
    <path d="m54.184 121.99a0.4017 0.4017 0 0 1-0.54874 0.14712 0.4017 0.4017 0 0 1-0.14712-0.54873 0.4017 0.4017 0 0 1 0.54872-0.14704 0.4017 0.4017 0 0 1 0.14713 0.54873z"/>
    <path d="m56.71 120.1a0.4017 0.4017 0 0 1-0.54874 0.14712 0.4017 0.4017 0 0 1-0.14712-0.54873 0.4017 0.4017 0 0 1 0.54872-0.14704 0.4017 0.4017 0 0 1 0.14713 0.54873z"/>
    <path d="m59.16 122.8a0.4017 0.4017 0 0 1-0.54874 0.14712 0.4017 0.4017 0 0 1-0.14712-0.54873 0.4017 0.4017 0 0 1 0.54872-0.14704 0.4017 0.4017 0 0 1 0.14713 0.54873z"/>
    <path d="m51.885 135.76a0.4017 0.4017 0 0 1-0.54874 0.14712 0.4017 0.4017 0 0 1-0.14712-0.54873 0.4017 0.4017 0 0 1 0.54872-0.14704 0.4017 0.4017 0 0 1 0.14713 0.54873z"/>
    <path d="m51.885 137.34a0.4017 0.4017 0 0 1-0.54874 0.14712 0.4017 0.4017 0 0 1-0.14712-0.54873 0.4017 0.4017 0 0 1 0.54872-0.14704 0.4017 0.4017 0 0 1 0.14713 0.54873z"/>
   </g>
   <g stroke-width=".06837">
    <path d="m53.328 137.4a0.4017 0.4017 0 0 1-0.54874 0.14712 0.4017 0.4017 0 0 1-0.14712-0.54873 0.4017 0.4017 0 0 1 0.54872-0.14704 0.4017 0.4017 0 0 1 0.14713 0.54873z" stroke="#fff"/>
    <path d="m54.747 137.4a0.4017 0.4017 0 0 1-0.54874 0.14712 0.4017 0.4017 0 0 1-0.14712-0.54873 0.4017 0.4017 0 0 1 0.54872-0.14704 0.4017 0.4017 0 0 1 0.14713 0.54873z" stroke="#f9f9f9"/>
    <path d="m54.747 135.76a0.4017 0.4017 0 0 1-0.54874 0.14712 0.4017 0.4017 0 0 1-0.14712-0.54873 0.4017 0.4017 0 0 1 0.54872-0.14704 0.4017 0.4017 0 0 1 0.14713 0.54873z" stroke="#f9f9f9"/>
   </g>
   <path d="m52.57 129.9q0.23495 0 0.36195 0.11748 0.127 0.1143 0.16828 0.31115l-0.0508-0.0159 0.02222-0.0508q0.04127-0.0825 0.12382-0.1651 0.08572-0.0857 0.2032-0.1397 0.11748-0.0572 0.25082-0.0572 0.21908 0 0.33972 0.0952 0.12065 0.0921 0.16828 0.25083 0.04763 0.15557 0.04763 0.34925v0.84137q0 0.0699-0.04445 0.11748-0.04445 0.0445-0.1143 0.0445-0.06667 0-0.1143-0.0445-0.04445-0.0476-0.04445-0.11748v-0.8382q0-0.11112-0.03175-0.2032-0.02857-0.0921-0.10478-0.14605-0.07303-0.0572-0.2032-0.0572-0.12382 0-0.22225 0.0572-0.09525 0.054-0.14922 0.14605-0.05398 0.0921-0.05398 0.2032v0.8382q0 0.0699-0.04445 0.11748-0.04445 0.0445-0.1143 0.0445t-0.1143-0.0445q-0.04445-0.0476-0.04445-0.11748v-0.84137q0-0.11113-0.03175-0.2032-0.02858-0.0921-0.1016-0.14605-0.07303-0.054-0.2032-0.054-0.12382 0-0.21908 0.054t-0.14922 0.14605q-0.0508 0.0921-0.0508 0.2032v0.84137q0 0.0699-0.04763 0.11748-0.04445 0.0445-0.11112 0.0445-0.06985 0-0.1143-0.0445-0.04445-0.0476-0.04445-0.11748v-1.3462q0-0.0699 0.04445-0.1143 0.04445-0.0476 0.1143-0.0476 0.06668 0 0.11112 0.0476 0.04763 0.0445 0.04763 0.1143v0.18733l-0.06033 0.0349q0.02223-0.0699 0.07303-0.14287 0.0508-0.073 0.127-0.13335 0.07937-0.0603 0.17462-0.0984 0.09525-0.0381 0.20638-0.0381z" stroke-width=".13229" aria-label="m"/>
  </g>
 </g>
</svg>
