<?xml version="1.0" encoding="UTF-8" standalone="no"?>
<!-- Created with Inkscape (http://www.inkscape.org/) -->

<svg
   width="55.342087"
   height="65.50415"
   viewBox="0 0 14.642594 17.331306"
   version="1.1"
   id="svg1"
   xmlns="http://www.w3.org/2000/svg"
   xmlns:svg="http://www.w3.org/2000/svg">
  <defs
     id="defs1" />
  <g
     id="layer1"
     transform="translate(-65.370833,-160.24091)">
    <path
       id="path38"
       style="fill:#000000;stroke:#000000;stroke-width:0.0115578;stroke-linecap:round;stroke-linejoin:round"
       d="m 71.534689,169.17392 h -0.0023 a 0.08654525,0.10421707 0 0 0 -0.08654,0.1042 v 0.21434 a 0.08654525,0.10421707 0 0 0 0.08654,0.10422 h 0.0023 a 0.08654525,0.10421707 0 0 0 0.08654,-0.10422 v -0.21434 a 0.08654525,0.10421707 0 0 0 -0.08654,-0.1042 z" />
    <path
       id="path81"
       style="fill:#000000;stroke:#000000;stroke-width:0.0115578;stroke-linecap:round;stroke-linejoin:round"
       d="m 72.093649,169.17392 h -0.0023 a 0.08654525,0.10421707 0 0 0 -0.08654,0.1042 v 0.21434 a 0.08654525,0.10421707 0 0 0 0.08654,0.10422 h 0.0023 a 0.08654525,0.10421707 0 0 0 0.08654,-0.10422 v -0.21434 a 0.08654525,0.10421707 0 0 0 -0.08654,-0.1042 z" />
    <path
       id="path82"
       style="fill:#000000;stroke:#000000;stroke-width:0.0115578;stroke-linecap:round;stroke-linejoin:round"
       d="m 72.652609,169.17392 h -0.0023 a 0.08654525,0.10421707 0 0 0 -0.08654,0.1042 v 0.21434 a 0.08654525,0.10421707 0 0 0 0.08654,0.10422 h 0.0023 a 0.08654525,0.10421707 0 0 0 0.08655,-0.10422 v -0.21434 a 0.08654525,0.10421707 0 0 0 -0.08655,-0.1042 z" />
    <path
       id="path83"
       style="fill:#000000;stroke:#000000;stroke-width:0.0115578;stroke-linecap:round;stroke-linejoin:round"
       d="m 73.211577,169.17392 h -0.0023 a 0.08654525,0.10421707 0 0 0 -0.08654,0.1042 v 0.21434 a 0.08654525,0.10421707 0 0 0 0.08654,0.10422 h 0.0023 a 0.08654525,0.10421707 0 0 0 0.08655,-0.10422 v -0.21434 a 0.08654525,0.10421707 0 0 0 -0.08655,-0.1042 z" />
    <path
       id="path84"
       style="fill:#000000;stroke:#000000;stroke-width:0.0115578;stroke-linecap:round;stroke-linejoin:round"
       d="m 73.770553,169.17952 h -0.0023 a 0.08654525,0.10421707 0 0 0 -0.08654,0.10421 v 0.21433 a 0.08654525,0.10421707 0 0 0 0.08654,0.10423 h 0.0023 a 0.08654525,0.10421707 0 0 0 0.08655,-0.10423 v -0.21433 a 0.08654525,0.10421707 0 0 0 -0.08655,-0.10421 z" />
    <path
       id="path86"
       style="fill:#000000;stroke:#000000;stroke-width:0.0115578;stroke-linecap:round;stroke-linejoin:round"
       d="m 71.543868,172.88226 h -0.0023 a 0.08654525,0.10421707 0 0 0 -0.08654,0.10421 v 0.21433 a 0.08654525,0.10421707 0 0 0 0.08654,0.10422 h 0.0023 a 0.08654525,0.10421707 0 0 0 0.08654,-0.10422 v -0.21433 a 0.08654525,0.10421707 0 0 0 -0.08654,-0.10421 z" />
    <path
       id="path87"
       style="fill:#000000;stroke:#000000;stroke-width:0.0115578;stroke-linecap:round;stroke-linejoin:round"
       d="m 72.102826,172.88226 h -0.0023 a 0.08654525,0.10421707 0 0 0 -0.08654,0.10421 v 0.21433 a 0.08654525,0.10421707 0 0 0 0.08654,0.10422 h 0.0023 a 0.08654525,0.10421707 0 0 0 0.08654,-0.10422 v -0.21433 a 0.08654525,0.10421707 0 0 0 -0.08654,-0.10421 z" />
    <path
       id="path88"
       style="fill:#cccccc;stroke:#000000;stroke-width:0.0115578;stroke-linecap:round;stroke-linejoin:round"
       d="m 72.670647,172.88226 h -0.0023 a 0.08654525,0.10421707 0 0 0 -0.08654,0.10421 v 0.21433 a 0.08654525,0.10421707 0 0 0 0.08654,0.10422 h 0.0023 a 0.08654525,0.10421707 0 0 0 0.08655,-0.10422 v -0.21433 a 0.08654525,0.10421707 0 0 0 -0.08655,-0.10421 z" />
    <path
       id="path89"
       style="fill:#000000;stroke:#000000;stroke-width:0.0115578;stroke-linecap:round;stroke-linejoin:round"
       d="m 73.220759,172.88226 h -0.0023 a 0.08654525,0.10421707 0 0 0 -0.08655,0.10421 v 0.21433 a 0.08654525,0.10421707 0 0 0 0.08655,0.10422 h 0.0023 a 0.08654525,0.10421707 0 0 0 0.08655,-0.10422 v -0.21433 a 0.08654525,0.10421707 0 0 0 -0.08655,-0.10421 z" />
    <path
       id="path90"
       style="fill:#000000;stroke:#000000;stroke-width:0.0115578;stroke-linecap:round;stroke-linejoin:round"
       d="m 73.779732,172.88786 h -0.0023 a 0.08654525,0.10421707 0 0 0 -0.08655,0.10421 v 0.21433 a 0.08654525,0.10421707 0 0 0 0.08655,0.10423 h 0.0023 a 0.08654525,0.10421707 0 0 0 0.08655,-0.10423 v -0.21433 a 0.08654525,0.10421707 0 0 0 -0.08655,-0.10421 z" />
    <path
       id="path91"
       style="fill:#000000;stroke:#000000;stroke-width:0.0115578;stroke-linecap:round;stroke-linejoin:round"
       d="m 72.661784,172.88226 h -0.0023 a 0.08654525,0.10421707 0 0 0 -0.08654,0.10421 v 0.21433 a 0.08654525,0.10421707 0 0 0 0.08654,0.10422 h 0.0023 a 0.08654525,0.10421707 0 0 0 0.08655,-0.10422 v -0.21433 a 0.08654525,0.10421707 0 0 0 -0.08655,-0.10421 z" />
    <path
       id="path92"
       style="fill:#ffffff;stroke:#000000;stroke-width:0.0292361;stroke-linecap:round;stroke-linejoin:round"
       d="m 71.209943,169.50362 h 2.901019 a 0.30365366,0.30365366 0 0 1 0.303655,0.30366 v 2.90102 a 0.30365366,0.30365366 0 0 1 -0.303655,0.30365 h -2.901019 a 0.30365366,0.30365366 0 0 1 -0.303656,-0.30365 v -2.90102 a 0.30365366,0.30365366 0 0 1 0.303656,-0.30366 z" />
    <path
       id="path93"
       style="fill:#ffffff;stroke:#000000;stroke-width:0.0870142;stroke-linecap:round;stroke-linejoin:round;stroke-dasharray:none"
       d="m 71.419678,169.75727 h 2.481549 a 0.25974672,0.25974672 0 0 1 0.259745,0.25974 v 2.48155 a 0.25974672,0.25974672 0 0 1 -0.259745,0.25975 h -2.481549 a 0.25974672,0.25974672 0 0 1 -0.259746,-0.25975 v -2.48155 a 0.25974672,0.25974672 0 0 1 0.259746,-0.25974 z" />
    <path
       d="m 71.942291,170.31294 q 0.01737,0 0.03472,0.008 0.01984,0.007 0.03224,0.0248 l 0.684536,1.0268 -0.06697,-0.002 0.687017,-1.02433 q 0.02729,-0.0372 0.06697,-0.0323 0.02976,0 0.0496,0.0223 0.02233,0.0198 0.02233,0.0521 v 1.58734 q 0,0.0298 -0.02233,0.0521 -0.02232,0.0223 -0.05456,0.0223 -0.03472,0 -0.05705,-0.0223 -0.02233,-0.0223 -0.02233,-0.0521 v -1.43604 l 0.04464,0.005 -0.627492,0.94991 q -0.0074,0.0148 -0.02232,0.0248 -0.01488,0.008 -0.03472,0.005 -0.01736,0.002 -0.03472,-0.005 -0.01488,-0.01 -0.0248,-0.0248 l -0.629972,-0.95983 0.04712,-0.0323 v 1.47325 q 0,0.0298 -0.02232,0.0521 -0.01984,0.0223 -0.05209,0.0223 -0.03224,0 -0.05208,-0.0223 -0.01984,-0.0223 -0.01984,-0.0521 v -1.58733 q 0,-0.0298 0.01984,-0.0521 0.02232,-0.0223 0.05456,-0.0223 z"
       id="path94"
       style="font-size:3.175px;font-family:Quicksand;-inkscape-font-specification:'Quicksand, Normal';stroke:#808080;stroke-width:0.0206683;stroke-linecap:round;stroke-linejoin:round"
       aria-label="M" />
    <path
       style="fill:#000000;stroke:#000000;stroke-width:0.0620051;stroke-linecap:round;stroke-linejoin:round;stroke-dasharray:none;stroke-opacity:1"
       d="m 71.541524,173.30502 v 1.35902"
       id="path95" />
    <path
       style="fill:none;stroke:#000000;stroke-width:0.0620051;stroke-linecap:round;stroke-linejoin:round;stroke-dasharray:none;stroke-opacity:1"
       d="m 72.101066,173.30502 v 2.05012 l -0.3746,0.64883"
       id="path96" />
    <path
       style="fill:none;stroke:#000000;stroke-width:0.0620051;stroke-linecap:round;stroke-linejoin:round;stroke-dasharray:none;stroke-opacity:1"
       d="m 72.668303,173.30502 v 2.63788"
       id="path97" />
    <path
       style="fill:none;stroke:#000000;stroke-width:0.0642817;stroke-linecap:round;stroke-linejoin:round;stroke-dasharray:none;stroke-opacity:1"
       d="m 73.220759,173.30502 v 2.06011 l 0.407778,0.6277"
       id="path98" />
    <path
       style="fill:none;stroke:#000000;stroke-width:0.0620051;stroke-linecap:round;stroke-linejoin:round;stroke-dasharray:none;stroke-opacity:1"
       d="m 73.779732,173.31063 v 1.39863"
       id="path99" />
    <path
       id="path100"
       style="fill:#ffffff;stroke:#1a1a1a;stroke-width:0.0534081;stroke-linecap:round;stroke-linejoin:round;stroke-dasharray:none"
       d="m 71.814495,175.17484 a 0.3137979,0.3137979 0 0 1 -0.428657,0.11493 0.3137979,0.3137979 0 0 1 -0.114925,-0.42865 0.3137979,0.3137979 0 0 1 0.428641,-0.11487 0.3137979,0.3137979 0 0 1 0.114934,0.42865 z" />
    <path
       id="path101"
       style="fill:#ffffff;stroke:#1a1a1a;stroke-width:0.0534081;stroke-linecap:round;stroke-linejoin:round;stroke-dasharray:none"
       d="m 71.814495,176.40796 a 0.3137979,0.3137979 0 0 1 -0.428657,0.11493 0.3137979,0.3137979 0 0 1 -0.114925,-0.42865 0.3137979,0.3137979 0 0 1 0.428641,-0.11487 0.3137979,0.3137979 0 0 1 0.114934,0.42865 z" />
    <path
       id="path102"
       style="fill:#ffffff;stroke:#1a1a1a;stroke-width:0.0534081;stroke-linecap:round;stroke-linejoin:round;stroke-dasharray:none"
       d="m 72.941274,176.45363 a 0.3137979,0.3137979 0 0 1 -0.428658,0.11493 0.3137979,0.3137979 0 0 1 -0.114925,-0.42865 0.3137979,0.3137979 0 0 1 0.428642,-0.11486 0.3137979,0.3137979 0 0 1 0.114933,0.42865 z" />
    <path
       id="path103"
       style="fill:#ffffff;stroke:#1a1a1a;stroke-width:0.0534081;stroke-linecap:round;stroke-linejoin:round;stroke-dasharray:none"
       d="m 72.941274,176.45363 a 0.3137979,0.3137979 0 0 1 -0.428658,0.11493 0.3137979,0.3137979 0 0 1 -0.114925,-0.42865 0.3137979,0.3137979 0 0 1 0.428642,-0.11486 0.3137979,0.3137979 0 0 1 0.114933,0.42865 z" />
    <path
       id="path104"
       style="fill:#ffffff;stroke:#1a1a1a;stroke-width:0.0534081;stroke-linecap:round;stroke-linejoin:round;stroke-dasharray:none"
       d="m 74.050359,176.45363 a 0.3137979,0.3137979 0 0 1 -0.428657,0.11493 0.3137979,0.3137979 0 0 1 -0.114926,-0.42865 0.3137979,0.3137979 0 0 1 0.428642,-0.11486 0.3137979,0.3137979 0 0 1 0.114933,0.42865 z" />
    <path
       id="path105"
       style="fill:#ffffff;stroke:#1a1a1a;stroke-width:0.0534081;stroke-linecap:round;stroke-linejoin:round;stroke-dasharray:none"
       d="m 74.050359,175.17484 a 0.3137979,0.3137979 0 0 1 -0.428657,0.11493 0.3137979,0.3137979 0 0 1 -0.114926,-0.42865 0.3137979,0.3137979 0 0 1 0.428642,-0.11487 0.3137979,0.3137979 0 0 1 0.114933,0.42865 z" />
    <path
       id="path106"
       style="stroke:#000000;stroke-width:0.0361591;stroke-linecap:round;stroke-linejoin:round"
       d="m 72.035744,170.53281 a 0.0585941,0.0585941 0 0 1 -0.0586,0.0586 0.0585941,0.0585941 0 0 1 -0.05859,-0.0586 0.0585941,0.0585941 0 0 1 0.05859,-0.0586 0.0585941,0.0585941 0 0 1 0.0586,0.0586 z" />
    <path
       id="path107"
       style="stroke:#000000;stroke-width:0.0361591;stroke-linecap:round;stroke-linejoin:round"
       d="m 72.720815,171.40056 a 0.0585941,0.0585941 0 0 1 -0.0586,0.0586 0.0585941,0.0585941 0 0 1 -0.05859,-0.0586 0.0585941,0.0585941 0 0 1 0.05859,-0.0586 0.0585941,0.0585941 0 0 1 0.0586,0.0586 z" />
    <path
       id="path110"
       style="stroke:#000000;stroke-width:0.0361591;stroke-linecap:round;stroke-linejoin:round"
       d="m 73.369339,170.52366 a 0.0585941,0.0585941 0 0 1 -0.05859,0.0586 0.0585941,0.0585941 0 0 1 -0.05859,-0.0586 0.0585941,0.0585941 0 0 1 0.05859,-0.0586 0.0585941,0.0585941 0 0 1 0.05859,0.0586 z" />
    <path
       id="path111"
       style="fill:#eca14f;stroke:none;stroke-width:0.0676637;stroke-linecap:round;stroke-linejoin:round"
       d="m 70.651433,166.56731 h 3.655448 a 0.73359573,0.72146799 0 0 1 0.733593,0.72146 v 3.82919 c 0,0.39845 0.04819,1.0412 0.08643,1.43784 0.148215,1.53654 0.06534,3.01371 -0.0096,3.85075 -0.03493,0.39007 -0.388274,0.78923 -0.772447,0.89317 l -0.353413,0.0956 a 5.0230553,4.9400146 0 0 1 -2.664356,-1e-5 l -0.380815,-0.10301 c -0.369041,-0.0998 -0.716413,-0.48241 -0.75579,-0.85678 -0.08468,-0.80503 -0.177567,-2.24409 -0.0091,-3.84917 0.04339,-0.41364 0.09668,-1.08436 0.09668,-1.50061 v -4.15124 a 0.37335576,0.36718348 0 0 1 0.373358,-0.36719 z" />
    <path
       id="path112"
       style="fill:#2563eb;fill-opacity:1;stroke:none;stroke-width:0.0934393;stroke-linecap:round;stroke-linejoin:round"
       d="m 80.013428,165.96616 c 0,2.21789 -3.277862,1.0709 -7.321299,1.0709 -4.04343,0 -7.321292,1.14699 -7.321292,-1.0709 0,-2.21785 4.906283,-5.72525 7.277132,-5.72525 2.370873,0 7.365459,3.5074 7.365459,5.72525 z" />
    <path
       id="path114"
       style="fill:#4d4d4d;stroke:#4d4d4d;stroke-width:0.0115578;stroke-linecap:round;stroke-linejoin:round"
       d="m 71.534689,169.17392 h -0.0023 a 0.08654525,0.10421707 0 0 0 -0.08654,0.1042 v 0.21434 a 0.08654525,0.10421707 0 0 0 0.08654,0.10422 h 0.0023 a 0.08654525,0.10421707 0 0 0 0.08654,-0.10422 v -0.21434 a 0.08654525,0.10421707 0 0 0 -0.08654,-0.1042 z" />
    <path
       id="path115"
       style="fill:#4d4d4d;stroke:#4d4d4d;stroke-width:0.0115578;stroke-linecap:round;stroke-linejoin:round"
       d="m 72.093649,169.17392 h -0.0023 a 0.08654525,0.10421707 0 0 0 -0.08654,0.1042 v 0.21434 a 0.08654525,0.10421707 0 0 0 0.08654,0.10422 h 0.0023 a 0.08654525,0.10421707 0 0 0 0.08654,-0.10422 v -0.21434 a 0.08654525,0.10421707 0 0 0 -0.08654,-0.1042 z" />
    <path
       id="path116"
       style="fill:#4d4d4d;stroke:#4d4d4d;stroke-width:0.0115578;stroke-linecap:round;stroke-linejoin:round"
       d="m 72.652609,169.17392 h -0.0023 a 0.08654525,0.10421707 0 0 0 -0.08654,0.1042 v 0.21434 a 0.08654525,0.10421707 0 0 0 0.08654,0.10422 h 0.0023 a 0.08654525,0.10421707 0 0 0 0.08655,-0.10422 v -0.21434 a 0.08654525,0.10421707 0 0 0 -0.08655,-0.1042 z" />
    <path
       id="path117"
       style="fill:#4d4d4d;stroke:#4d4d4d;stroke-width:0.0115578;stroke-linecap:round;stroke-linejoin:round"
       d="m 73.211577,169.17392 h -0.0023 a 0.08654525,0.10421707 0 0 0 -0.08654,0.1042 v 0.21434 a 0.08654525,0.10421707 0 0 0 0.08654,0.10422 h 0.0023 a 0.08654525,0.10421707 0 0 0 0.08655,-0.10422 v -0.21434 a 0.08654525,0.10421707 0 0 0 -0.08655,-0.1042 z" />
    <path
       id="path118"
       style="fill:#4d4d4d;stroke:#4d4d4d;stroke-width:0.0115578;stroke-linecap:round;stroke-linejoin:round"
       d="m 73.770553,169.17952 h -0.0023 a 0.08654525,0.10421707 0 0 0 -0.08654,0.10421 v 0.21433 a 0.08654525,0.10421707 0 0 0 0.08654,0.10423 h 0.0023 a 0.08654525,0.10421707 0 0 0 0.08655,-0.10423 v -0.21433 a 0.08654525,0.10421707 0 0 0 -0.08655,-0.10421 z" />
    <path
       id="path119"
       style="fill:#4d4d4d;stroke:#4d4d4d;stroke-width:0.0115578;stroke-linecap:round;stroke-linejoin:round"
       d="m 71.543868,172.88226 h -0.0023 a 0.08654525,0.10421707 0 0 0 -0.08654,0.10421 v 0.21433 a 0.08654525,0.10421707 0 0 0 0.08654,0.10422 h 0.0023 a 0.08654525,0.10421707 0 0 0 0.08654,-0.10422 v -0.21433 a 0.08654525,0.10421707 0 0 0 -0.08654,-0.10421 z" />
    <path
       id="path128"
       style="fill:#4d4d4d;stroke:#4d4d4d;stroke-width:0.0115578;stroke-linecap:round;stroke-linejoin:round"
       d="m 72.102826,172.88226 h -0.0023 a 0.08654525,0.10421707 0 0 0 -0.08654,0.10421 v 0.21433 a 0.08654525,0.10421707 0 0 0 0.08654,0.10422 h 0.0023 a 0.08654525,0.10421707 0 0 0 0.08654,-0.10422 v -0.21433 a 0.08654525,0.10421707 0 0 0 -0.08654,-0.10421 z" />
    <path
       id="path131"
       style="fill:#cccccc;stroke:#000000;stroke-width:0.0115578;stroke-linecap:round;stroke-linejoin:round"
       d="m 72.670647,172.88226 h -0.0023 a 0.08654525,0.10421707 0 0 0 -0.08654,0.10421 v 0.21433 a 0.08654525,0.10421707 0 0 0 0.08654,0.10422 h 0.0023 a 0.08654525,0.10421707 0 0 0 0.08655,-0.10422 v -0.21433 a 0.08654525,0.10421707 0 0 0 -0.08655,-0.10421 z" />
    <path
       id="path132"
       style="fill:#4d4d4d;stroke:#4d4d4d;stroke-width:0.0115578;stroke-linecap:round;stroke-linejoin:round"
       d="m 73.220759,172.88226 h -0.0023 a 0.08654525,0.10421707 0 0 0 -0.08655,0.10421 v 0.21433 a 0.08654525,0.10421707 0 0 0 0.08655,0.10422 h 0.0023 a 0.08654525,0.10421707 0 0 0 0.08655,-0.10422 v -0.21433 a 0.08654525,0.10421707 0 0 0 -0.08655,-0.10421 z" />
    <path
       id="path133"
       style="fill:#4d4d4d;stroke:#4d4d4d;stroke-width:0.0115578;stroke-linecap:round;stroke-linejoin:round"
       d="m 73.779732,172.88786 h -0.0023 a 0.08654525,0.10421707 0 0 0 -0.08655,0.10421 v 0.21433 a 0.08654525,0.10421707 0 0 0 0.08655,0.10423 h 0.0023 a 0.08654525,0.10421707 0 0 0 0.08655,-0.10423 v -0.21433 a 0.08654525,0.10421707 0 0 0 -0.08655,-0.10421 z" />
    <path
       id="path134"
       style="fill:#4d4d4d;stroke:#4d4d4d;stroke-width:0.0115578;stroke-linecap:round;stroke-linejoin:round"
       d="m 72.661784,172.88226 h -0.0023 a 0.08654525,0.10421707 0 0 0 -0.08654,0.10421 v 0.21433 a 0.08654525,0.10421707 0 0 0 0.08654,0.10422 h 0.0023 a 0.08654525,0.10421707 0 0 0 0.08655,-0.10422 v -0.21433 a 0.08654525,0.10421707 0 0 0 -0.08655,-0.10421 z" />
    <path
       id="path135"
       style="fill:#ffffff;stroke:#666666;stroke-width:0.12401;stroke-linecap:round;stroke-linejoin:round;stroke-dasharray:none"
       d="m 71.209943,169.50362 h 2.901019 a 0.30365366,0.30365366 0 0 1 0.303655,0.30366 v 2.90102 a 0.30365366,0.30365366 0 0 1 -0.303655,0.30365 h -2.901019 a 0.30365366,0.30365366 0 0 1 -0.303656,-0.30365 v -2.90102 a 0.30365366,0.30365366 0 0 1 0.303656,-0.30366 z" />
    <path
       id="path136"
       style="fill:#f9f9f9;stroke:#f9f9f9;stroke-width:0.0534081;stroke-linecap:round;stroke-linejoin:round;stroke-dasharray:none"
       d="m 68.830391,166.43491 a 0.3137979,0.3137979 0 0 1 -0.428658,0.11493 0.3137979,0.3137979 0 0 1 -0.114925,-0.42865 0.3137979,0.3137979 0 0 1 0.428642,-0.11487 0.3137979,0.3137979 0 0 1 0.114933,0.42865 z" />
    <path
       id="path137"
       style="fill:#f9f9f9;stroke:#f9f9f9;stroke-width:0.0534081;stroke-linecap:round;stroke-linejoin:round;stroke-dasharray:none"
       d="m 72.656054,161.31095 a 0.3137979,0.3137979 0 0 1 -0.428657,0.11492 0.3137979,0.3137979 0 0 1 -0.114925,-0.42865 0.3137979,0.3137979 0 0 1 0.428641,-0.11486 0.3137979,0.3137979 0 0 1 0.114933,0.42865 z" />
    <path
       id="path138"
       style="fill:#f9f9f9;stroke:#f9f9f9;stroke-width:0.0534081;stroke-linecap:round;stroke-linejoin:round;stroke-dasharray:none"
       d="m 74.274312,162.67338 a 0.3137979,0.3137979 0 0 1 -0.428658,0.11493 0.3137979,0.3137979 0 0 1 -0.114925,-0.42866 0.3137979,0.3137979 0 0 1 0.428642,-0.11486 0.3137979,0.3137979 0 0 1 0.114933,0.42865 z" />
    <path
       id="path139"
       style="fill:#f9f9f9;stroke:#f9f9f9;stroke-width:0.0534081;stroke-linecap:round;stroke-linejoin:round;stroke-dasharray:none"
       d="m 77.632791,163.63123 a 0.3137979,0.3137979 0 0 1 -0.428658,0.11491 0.3137979,0.3137979 0 0 1 -0.114925,-0.42865 0.3137979,0.3137979 0 0 1 0.428642,-0.11485 0.3137979,0.3137979 0 0 1 0.114933,0.42865 z" />
    <path
       id="path140"
       style="fill:#f9f9f9;stroke:#f9f9f9;stroke-width:0.0534081;stroke-linecap:round;stroke-linejoin:round;stroke-dasharray:none"
       d="m 69.585592,164.45169 a 0.3137979,0.3137979 0 0 1 -0.428658,0.11492 0.3137979,0.3137979 0 0 1 -0.114925,-0.42865 0.3137979,0.3137979 0 0 1 0.428642,-0.11485 0.3137979,0.3137979 0 0 1 0.114933,0.42864 z" />
    <path
       style="fill:none;stroke:#ffffff;stroke-width:0.144678;stroke-linecap:round;stroke-linejoin:round;stroke-dasharray:none;stroke-opacity:1"
       d="m 71.531979,169.17392 v -2.79014 L 70.49937,165.35117 H 67.4516"
       id="path141" />
    <path
       style="fill:none;stroke:#ffffff;stroke-width:0.144678;stroke-linecap:round;stroke-linejoin:round;stroke-dasharray:none;stroke-opacity:1"
       d="m 72.650266,169.17392 v -2.77472 l 0.70948,-0.6856 v -1.11247"
       id="path142" />
    <path
       style="fill:none;stroke:#ffffff;stroke-width:0.144678;stroke-linecap:round;stroke-linejoin:round;stroke-dasharray:none;stroke-opacity:1"
       d="m 73.211577,169.17392 v -2.73489 l 2.106731,-2.08188 v -1.24137"
       id="path143" />
    <path
       style="fill:none;stroke:#ffffff;stroke-width:0.144678;stroke-linecap:round;stroke-linejoin:round;stroke-dasharray:none;stroke-opacity:1"
       d="m 73.770553,169.17952 v -2.73845 l 1.545782,-1.53314 h 1.558748"
       id="path144" />
    <path
       id="path228"
       style="fill:#f9f9f9;stroke:#f9f9f9;stroke-width:0.0534081;stroke-linecap:round;stroke-linejoin:round;stroke-dasharray:none"
       d="m 78.00079,166.43308 a 0.3137979,0.3137979 0 0 1 -0.428657,0.11492 0.3137979,0.3137979 0 0 1 -0.114925,-0.42865 0.3137979,0.3137979 0 0 1 0.428642,-0.11485 0.3137979,0.3137979 0 0 1 0.114933,0.42865 z" />
    <path
       id="path229"
       style="fill:#f9f9f9;stroke:#f9f9f9;stroke-width:0.0534081;stroke-linecap:round;stroke-linejoin:round;stroke-dasharray:none"
       d="m 67.869821,163.84272 a 0.3137979,0.3137979 0 0 1 -0.428657,0.11492 0.3137979,0.3137979 0 0 1 -0.114926,-0.42865 0.3137979,0.3137979 0 0 1 0.428642,-0.11486 0.3137979,0.3137979 0 0 1 0.114933,0.42865 z" />
    <path
       style="fill:none;stroke:#ffffff;stroke-width:0.144678;stroke-linecap:round;stroke-linejoin:round;stroke-dasharray:none;stroke-opacity:1"
       d="m 72.091888,169.17392 v -2.79156 l -1.979235,-1.98568 v -2.29514"
       id="path230" />
    <path
       id="path231"
       style="fill:#2563eb;fill-opacity:1;stroke:none;stroke-width:0.0620051;stroke-linecap:round;stroke-linejoin:round;stroke-dasharray:none"
       d="m 71.419673,169.77655 h 2.481549 a 0.25974672,0.25974672 0 0 1 0.259746,0.25974 v 2.48155 a 0.25974672,0.25974672 0 0 1 -0.259746,0.25975 h -2.481549 a 0.25974672,0.25974672 0 0 1 -0.259745,-0.25975 v -2.48155 a 0.25974672,0.25974672 0 0 1 0.259745,-0.25974 z" />
    <path
       id="path232"
       style="fill:#f9f9f9;stroke:#f9f9f9;stroke-width:0.0534081;stroke-linecap:round;stroke-linejoin:round;stroke-dasharray:none"
       d="m 71.833978,163.44835 a 0.3137979,0.3137979 0 0 1 -0.428658,0.11492 0.3137979,0.3137979 0 0 1 -0.114925,-0.42864 0.3137979,0.3137979 0 0 1 0.428642,-0.11486 0.3137979,0.3137979 0 0 1 0.114933,0.42865 z" />
    <path
       style="fill:#000000;stroke:#ffffff;stroke-width:0.144678;stroke-linecap:round;stroke-linejoin:round;stroke-dasharray:none;stroke-opacity:1"
       d="m 71.541524,173.30502 v 1.35902"
       id="path233" />
    <path
       style="fill:none;stroke:#ffffff;stroke-width:0.144678;stroke-linecap:round;stroke-linejoin:round;stroke-dasharray:none;stroke-opacity:1"
       d="m 72.101066,173.30502 v 2.05012 l -0.3746,0.64883"
       id="path234" />
    <path
       style="fill:none;stroke:#ffffff;stroke-width:0.144678;stroke-linecap:round;stroke-linejoin:round;stroke-dasharray:none;stroke-opacity:1"
       d="m 72.668303,173.30502 v 2.63788"
       id="path235" />
    <path
       style="fill:none;stroke:#ffffff;stroke-width:0.144678;stroke-linecap:round;stroke-linejoin:round;stroke-dasharray:none;stroke-opacity:1"
       d="m 73.220759,173.30502 v 2.06011 l 0.407778,0.6277"
       id="path236" />
    <path
       style="fill:none;stroke:#ffffff;stroke-width:0.144678;stroke-linecap:round;stroke-linejoin:round;stroke-dasharray:none;stroke-opacity:1"
       d="m 73.779732,173.31063 v 1.39863"
       id="path237" />
    <path
       id="path238"
       style="fill:#f9f9f9;stroke:#f9f9f9;stroke-width:0.0534081;stroke-linecap:round;stroke-linejoin:round;stroke-dasharray:none"
       d="m 67.381139,165.51884 a 0.3137979,0.3137979 0 0 1 -0.428658,0.11493 0.3137979,0.3137979 0 0 1 -0.114925,-0.42865 0.3137979,0.3137979 0 0 1 0.428642,-0.11486 0.3137979,0.3137979 0 0 1 0.114933,0.42865 z" />
    <path
       id="path239"
       style="fill:#f9f9f9;stroke:#f9f9f9;stroke-width:0.0534081;stroke-linecap:round;stroke-linejoin:round;stroke-dasharray:none"
       d="m 70.377164,161.91082 a 0.3137979,0.3137979 0 0 1 -0.428658,0.11493 0.3137979,0.3137979 0 0 1 -0.114925,-0.42865 0.3137979,0.3137979 0 0 1 0.428642,-0.11487 0.3137979,0.3137979 0 0 1 0.114933,0.42865 z" />
    <path
       id="path240"
       style="fill:#ffffff;stroke:#f9f9f9;stroke-width:0.0534081;stroke-linecap:round;stroke-linejoin:round;stroke-dasharray:none"
       d="m 73.610679,164.41817 a 0.3137979,0.3137979 0 0 1 -0.428657,0.11493 0.3137979,0.3137979 0 0 1 -0.114925,-0.42865 0.3137979,0.3137979 0 0 1 0.428641,-0.11486 0.3137979,0.3137979 0 0 1 0.114934,0.42865 z" />
    <path
       id="path241"
       style="fill:#ffffff;stroke:#f9f9f9;stroke-width:0.0534081;stroke-linecap:round;stroke-linejoin:round;stroke-dasharray:none"
       d="m 75.583673,162.94299 a 0.3137979,0.3137979 0 0 1 -0.428658,0.11493 0.3137979,0.3137979 0 0 1 -0.114925,-0.42865 0.3137979,0.3137979 0 0 1 0.428642,-0.11486 0.3137979,0.3137979 0 0 1 0.114933,0.42865 z" />
    <path
       id="path242"
       style="fill:#ffffff;stroke:#f9f9f9;stroke-width:0.0534081;stroke-linecap:round;stroke-linejoin:round;stroke-dasharray:none"
       d="m 77.497289,165.04843 a 0.3137979,0.3137979 0 0 1 -0.428657,0.11493 0.3137979,0.3137979 0 0 1 -0.114925,-0.42865 0.3137979,0.3137979 0 0 1 0.428641,-0.11486 0.3137979,0.3137979 0 0 1 0.114934,0.42865 z" />
    <path
       id="path243"
       style="fill:#ffffff;stroke:#f9f9f9;stroke-width:0.0534081;stroke-linecap:round;stroke-linejoin:round;stroke-dasharray:none"
       d="m 71.814495,175.17484 a 0.3137979,0.3137979 0 0 1 -0.428657,0.11493 0.3137979,0.3137979 0 0 1 -0.114925,-0.42865 0.3137979,0.3137979 0 0 1 0.428641,-0.11487 0.3137979,0.3137979 0 0 1 0.114934,0.42865 z" />
    <path
       id="path244"
       style="fill:#ffffff;stroke:#f9f9f9;stroke-width:0.0534081;stroke-linecap:round;stroke-linejoin:round;stroke-dasharray:none"
       d="m 71.814495,176.40796 a 0.3137979,0.3137979 0 0 1 -0.428657,0.11493 0.3137979,0.3137979 0 0 1 -0.114925,-0.42865 0.3137979,0.3137979 0 0 1 0.428641,-0.11487 0.3137979,0.3137979 0 0 1 0.114934,0.42865 z" />
    <path
       id="path245"
       style="fill:#ffffff;stroke:#ffffff;stroke-width:0.0534081;stroke-linecap:round;stroke-linejoin:round;stroke-dasharray:none"
       d="m 72.941274,176.45363 a 0.3137979,0.3137979 0 0 1 -0.428658,0.11493 0.3137979,0.3137979 0 0 1 -0.114925,-0.42865 0.3137979,0.3137979 0 0 1 0.428642,-0.11486 0.3137979,0.3137979 0 0 1 0.114933,0.42865 z" />
    <path
       id="path246"
       style="fill:#ffffff;stroke:#f9f9f9;stroke-width:0.0534081;stroke-linecap:round;stroke-linejoin:round;stroke-dasharray:none"
       d="m 74.050359,176.45363 a 0.3137979,0.3137979 0 0 1 -0.428657,0.11493 0.3137979,0.3137979 0 0 1 -0.114926,-0.42865 0.3137979,0.3137979 0 0 1 0.428642,-0.11486 0.3137979,0.3137979 0 0 1 0.114933,0.42865 z" />
    <path
       id="path247"
       style="fill:#ffffff;stroke:#f9f9f9;stroke-width:0.0534081;stroke-linecap:round;stroke-linejoin:round;stroke-dasharray:none"
       d="m 74.050359,175.17484 a 0.3137979,0.3137979 0 0 1 -0.428657,0.11493 0.3137979,0.3137979 0 0 1 -0.114926,-0.42865 0.3137979,0.3137979 0 0 1 0.428642,-0.11487 0.3137979,0.3137979 0 0 1 0.114933,0.42865 z" />
    <g
       id="text1"
       style="opacity:1"
       transform="matrix(0.61169742,0,0,0.54878115,57.271644,84.679231)">
      <path
         style="font-weight:300;font-size:4.58611px;font-family:Quicksand;-inkscape-font-specification:'Quicksand Light';letter-spacing:0.0687917px;baseline-shift:baseline;white-space:pre;inline-size:5.2514;display:inline;overflow:visible;vector-effect:none;fill:#ffffff;stroke-linecap:round;stroke-linejoin:round;enable-background:accumulate;stop-opacity:1"
         d="m 26.689311,157.76518 q 0,0.36689 -0.114652,0.66957 -0.110067,0.30268 -0.316442,0.52282 -0.206375,0.22013 -0.486128,0.33937 -0.279752,0.11924 -0.614538,0.11924 -0.334786,0 -0.614539,-0.11924 -0.279753,-0.11924 -0.486128,-0.33937 -0.206375,-0.22014 -0.321027,-0.52282 -0.110067,-0.30268 -0.110067,-0.66957 0,-0.36689 0.110067,-0.66958 0.114652,-0.30268 0.321027,-0.52281 0.206375,-0.22013 0.486128,-0.33937 0.279753,-0.11924 0.614539,-0.11924 0.334786,0 0.614538,0.11924 0.279753,0.11924 0.486128,0.33937 0.206375,0.22013 0.316442,0.52281 0.114652,0.30269 0.114652,0.66958 z m -0.192616,0 q 0,-0.44027 -0.174272,-0.77047 -0.169686,-0.3302 -0.47237,-0.51364 -0.298097,-0.18345 -0.692502,-0.18345 -0.38982,0 -0.692503,0.18345 -0.302683,0.18344 -0.476955,0.51364 -0.169686,0.3302 -0.169686,0.77047 0,0.44026 0.169686,0.77046 0.174272,0.3302 0.476955,0.51365 0.302683,0.18344 0.692503,0.18344 0.394405,0 0.692502,-0.18344 0.302684,-0.18345 0.47237,-0.51365 0.174272,-0.3302 0.174272,-0.77046 z"
         id="path249" />
      <path
         style="font-weight:300;font-size:4.58611px;font-family:Quicksand;-inkscape-font-specification:'Quicksand Light';letter-spacing:0.0687917px;baseline-shift:baseline;white-space:pre;inline-size:5.2514;display:inline;overflow:visible;vector-effect:none;fill:#ffffff;stroke-linecap:round;stroke-linejoin:round;enable-background:accumulate;stop-opacity:1"
         d="m 25.158203,156.04883 c -0.231044,0 -0.445367,0.0398 -0.640625,0.12304 -0.194611,0.0829 -0.366058,0.20219 -0.509766,0.35547 -0.143749,0.15333 -0.254774,0.33581 -0.333984,0.54493 -0.07631,0.20986 -0.113281,0.44215 -0.113281,0.69335 0,0.25121 0.03697,0.48156 0.113281,0.69141 a 0.06615262,0.06615262 0 0 0 0,0.002 c 0.07921,0.20912 0.190236,0.38964 0.333984,0.54297 0.143708,0.15329 0.315155,0.27252 0.509766,0.35547 0.195258,0.0832 0.409581,0.125 0.640625,0.125 0.231044,0 0.445368,-0.0418 0.640625,-0.125 0.194611,-0.0829 0.364105,-0.20218 0.507813,-0.35547 0.143538,-0.15311 0.253943,-0.33423 0.330078,-0.54297 v -0.002 c 0.07913,-0.20961 0.11914,-0.44061 0.11914,-0.69141 0,-0.25148 -0.03957,-0.48328 -0.11914,-0.69335 -0.07616,-0.20943 -0.186162,-0.39142 -0.330078,-0.54493 -0.143708,-0.15328 -0.313202,-0.27252 -0.507813,-0.35547 -0.195257,-0.0832 -0.409581,-0.12304 -0.640625,-0.12304 z m 0,0.13086 c 0.215338,0 0.410145,0.0395 0.587891,0.11523 0.178392,0.076 0.333384,0.18205 0.464843,0.32227 0.131251,0.14 0.230181,0.3078 0.300782,0.50195 a 0.06615262,0.06615262 0 0 0 0.002,0 c 0.0733,0.19352 0.109375,0.40878 0.109375,0.64648 0,0.23771 -0.03608,0.45298 -0.109375,0.64649 a 0.06615262,0.06615262 0 0 0 -0.002,0 c -0.0706,0.19415 -0.171484,0.35999 -0.302735,0.5 -0.131459,0.14022 -0.284498,0.24818 -0.46289,0.32422 -0.177746,0.0758 -0.372553,0.11328 -0.587891,0.11328 -0.215338,0 -0.412097,-0.0375 -0.589844,-0.11328 -0.178392,-0.076 -0.331431,-0.184 -0.46289,-0.32422 -0.131418,-0.14018 -0.234935,-0.30554 -0.308594,-0.5 h 0.002 c -0.07044,-0.19372 -0.107422,-0.40851 -0.107422,-0.64649 0,-0.23797 0.03698,-0.45275 0.107422,-0.64648 h -0.002 c 0.07366,-0.19446 0.177176,-0.36178 0.308594,-0.50195 0.131459,-0.14022 0.284498,-0.24623 0.46289,-0.32227 0.177747,-0.0758 0.374506,-0.11523 0.589844,-0.11523 z m 0,0.0527 c -0.270256,0 -0.51401,0.0626 -0.726562,0.19141 -0.212021,0.12849 -0.380754,0.30942 -0.501954,0.53906 a 0.06615262,0.06615262 0 0 0 0,0.002 c -0.118586,0.23077 -0.177734,0.49877 -0.177734,0.80078 0,0.30201 0.05915,0.57002 0.177734,0.80079 0.1212,0.22964 0.289933,0.41056 0.501954,0.53906 0.212552,0.12882 0.456307,0.19336 0.726562,0.19336 0.273192,0 0.516742,-0.0642 0.726563,-0.19336 0.212147,-0.12858 0.377937,-0.30914 0.496093,-0.53906 0.121846,-0.23087 0.181641,-0.49855 0.181641,-0.80079 0,-0.30154 -0.06036,-0.57027 -0.181641,-0.80078 v -0.002 c -0.118114,-0.22928 -0.284361,-0.41074 -0.496093,-0.53906 -0.209821,-0.12913 -0.453371,-0.19141 -0.726563,-0.19141 z m 0,0.13086 c 0.252681,0 0.468608,0.0583 0.65625,0.17383 a 0.06615262,0.06615262 0 0 0 0.002,0 c 0.191431,0.11601 0.339174,0.27794 0.447266,0.48828 0.110517,0.2094 0.166015,0.45545 0.166015,0.74023 0,0.28478 -0.0555,0.52889 -0.166015,0.73829 a 0.06615262,0.06615262 0 0 0 0,0.002 c -0.108092,0.21034 -0.255835,0.37031 -0.447266,0.48633 a 0.06615262,0.06615262 0 0 0 -0.002,0 c -0.187642,0.11547 -0.403568,0.17383 -0.65625,0.17383 -0.249504,0 -0.467178,-0.0581 -0.658203,-0.17383 -0.191145,-0.11585 -0.342034,-0.27637 -0.453125,-0.48633 v -0.002 c -0.107124,-0.20916 -0.162109,-0.45399 -0.162109,-0.73829 0,-0.28501 0.05445,-0.53073 0.162109,-0.74023 0.111163,-0.21062 0.261569,-0.37219 0.453125,-0.48828 0.191025,-0.11578 0.408699,-0.17383 0.658203,-0.17383 z"
         id="path250" />
    </g>
  </g>
</svg>
